<?xml version="1.0" encoding="iso-8859-1"?>
<!-- Generator: Adobe Illustrator 19.0.0, SVG Export Plug-In . SVG Version: 6.00 Build 0)  -->
<svg version="1.1" id="Capa_1" xmlns="http://www.w3.org/2000/svg" xmlns:xlink="http://www.w3.org/1999/xlink" x="0px" y="0px"
	 viewBox="0 0 436.907 436.907" style="enable-background:new 0 0 436.907 436.907;" xml:space="preserve">
<polygon style="fill:#EA3457;" points="109.227,40.96 320.853,40.96 361.813,402.773 75.093,402.773 "/>
<path style="fill:#602F75;" d="M361.813,409.6H75.093c-1.922,0-3.758-0.809-5.048-2.232c-1.294-1.42-1.925-3.321-1.748-5.233
	l34.133-361.813c0.328-3.509,3.273-6.188,6.796-6.188h211.627c3.475,0,6.393,2.608,6.782,6.059l40.96,361.813
	c0.218,1.929-0.396,3.864-1.693,5.315C365.609,408.771,363.756,409.6,361.813,409.6z M82.592,395.947h271.575l-39.41-348.16H115.439
	L82.592,395.947z"/>
<path style="fill:#602F75;" d="M218.453,402.773c-3.768,0-6.827-3.058-6.827-6.827V47.787c0-3.768,3.058-6.827,6.827-6.827
	s6.827,3.058,6.827,6.827v348.16C225.28,399.715,222.222,402.773,218.453,402.773z"/>
<path style="fill:#602F75;" d="M300.367,409.6c-3.485,0-6.458-2.649-6.789-6.185L259.444,41.602
	c-0.355-3.755,2.403-7.083,6.158-7.438c3.765-0.365,7.079,2.403,7.438,6.158l34.133,361.813c0.355,3.755-2.403,7.083-6.158,7.438
	C300.797,409.59,300.582,409.6,300.367,409.6z"/>
<path style="fill:#602F75;" d="M136.54,409.6c-0.212,0-0.43-0.01-0.645-0.031c-3.755-0.355-6.509-3.683-6.158-7.438l34.133-361.813
	c0.355-3.755,3.656-6.53,7.438-6.158c3.755,0.355,6.509,3.683,6.158,7.438l-34.133,361.813
	C142.998,406.951,140.022,409.6,136.54,409.6z"/>
<rect x="6.827" y="34.133" style="fill:#EAEAEA;" width="27.307" height="368.64"/>
<path style="fill:#602F75;" d="M34.133,409.6H6.827C3.058,409.6,0,406.542,0,402.773V34.133c0-3.768,3.058-6.827,6.827-6.827h27.307
	c3.768,0,6.827,3.058,6.827,6.827v368.64C40.96,406.542,37.902,409.6,34.133,409.6z M13.653,395.947h13.653V40.96H13.653V395.947z"
	/>
<rect x="402.773" y="34.133" style="fill:#EAEAEA;" width="27.307" height="368.64"/>
<path style="fill:#602F75;" d="M430.08,409.6h-27.307c-3.768,0-6.827-3.058-6.827-6.827V34.133c0-3.768,3.058-6.827,6.827-6.827
	h27.307c3.768,0,6.827,3.058,6.827,6.827v368.64C436.907,406.542,433.848,409.6,430.08,409.6z M409.6,395.947h13.653V40.96H409.6
	V395.947z"/>
<path style="fill:#FFE600;" d="M402.773,191.147l-59.682,8.841c-82.64,12.244-166.632,12.244-249.272,0l-59.686-8.841V75.093
	l59.682,8.841c82.64,12.244,166.632,12.244,249.272,0l59.686-8.841V191.147z"/>
<path style="fill:#602F75;" d="M218.453,216.003c-41.977,0-83.954-3.086-125.638-9.26l-59.682-8.844
	c-3.345-0.495-5.827-3.369-5.827-6.752V75.093c0-1.987,0.864-3.874,2.365-5.171c1.502-1.297,3.505-1.871,5.461-1.584l59.682,8.844
	c82.033,12.151,165.233,12.151,247.272,0l59.682-8.844c1.963-0.29,3.953,0.287,5.461,1.584c1.505,1.297,2.369,3.185,2.369,5.171
	v116.053c0,3.383-2.482,6.257-5.827,6.755l-59.682,8.844C302.408,212.917,260.431,216.003,218.453,216.003z M40.96,185.255
	l53.856,7.98c82.033,12.155,165.233,12.151,247.272,0l53.859-7.98V83.005l-51.855,7.683c-83.367,12.346-167.905,12.346-251.273,0
	L40.96,83.005V185.255z M402.773,191.147h0.034H402.773z"/>
<g>
	<path style="fill:#EA3457;" d="M134.052,135.332c0.027,1.12,0.355,2.127,0.98,3.021s1.454,1.741,2.481,2.54s2.195,1.58,3.499,2.342
		s2.645,1.56,4.021,2.4c1.376,0.84,2.714,1.754,4.021,2.741c1.307,0.986,2.482,2.106,3.519,3.359
		c1.038,1.253,1.881,2.666,2.519,4.239c0.638,1.574,0.986,3.359,1.041,5.359v0.321c0,2.188-0.266,4.093-0.799,5.721
		c-0.532,1.628-1.239,3.028-2.12,4.198c-0.881,1.171-1.908,2.14-3.079,2.901c-1.171,0.761-2.406,1.365-3.7,1.819
		c-1.294,0.454-2.601,0.775-3.919,0.959c-1.318,0.184-2.57,0.297-3.744,0.321h-0.399c-2.266,0-4.253-0.225-5.96-0.679
		c-1.707-0.454-3.174-1.062-4.4-1.819c-1.225-0.758-2.246-1.635-3.058-2.621c-0.812-0.986-1.461-2.007-1.939-3.058
		s-0.826-2.099-1.041-3.14c-0.215-1.041-0.321-2.014-0.321-2.918c0-0.932,0.16-1.748,0.481-2.441c0.321-0.693,0.741-1.26,1.26-1.7
		s1.12-0.768,1.799-0.98c0.679-0.212,1.393-0.321,2.14-0.321c0.693,0,1.406,0.106,2.14,0.321c0.734,0.215,1.399,0.539,2,0.98
		s1.092,1,1.481,1.679s0.594,1.475,0.621,2.379c0.055,2,0.505,3.366,1.359,4.099s2.079,1.099,3.68,1.099
		c0.799-0.027,1.539-0.126,2.219-0.3s1.26-0.481,1.741-0.922s0.86-1.027,1.14-1.761s0.42-1.659,0.42-2.778
		c0-1.386-0.314-2.639-0.939-3.762c-0.625-1.123-1.447-2.161-2.461-3.12c-1.014-0.959-2.174-1.874-3.482-2.741
		c-1.307-0.867-2.639-1.734-4-2.601c-1.362-0.867-2.686-1.775-3.98-2.72c-1.294-0.945-2.461-1.98-3.499-3.099
		c-1.038-1.12-1.874-2.359-2.499-3.721s-0.952-2.908-0.98-4.639v-0.642c0.027-2.854,0.406-5.226,1.14-7.12
		c0.734-1.894,1.812-3.4,3.239-4.519s3.181-1.915,5.26-2.379c2.079-0.464,4.468-0.7,7.161-0.7h1.041c2.454,0,4.533,0.266,6.24,0.799
		c1.707,0.532,3.127,1.212,4.26,2.041s2.028,1.761,2.679,2.799c0.652,1.038,1.14,2.065,1.461,3.079s0.519,1.959,0.601,2.84
		c0.082,0.881,0.119,1.587,0.119,2.12c0,0.799-0.154,1.526-0.461,2.181s-0.72,1.208-1.239,1.659
		c-0.519,0.451-1.133,0.806-1.84,1.062c-0.707,0.256-1.475,0.379-2.301,0.379c-0.642,0-1.28-0.126-1.918-0.379
		s-1.212-0.58-1.72-0.98c-0.509-0.399-0.922-0.86-1.239-1.379c-0.317-0.519-0.481-1.048-0.481-1.58c0-2.188-0.393-3.707-1.181-4.56
		c-0.788-0.853-1.939-1.28-3.461-1.28c-0.72,0-1.42,0.041-2.099,0.119c-0.679,0.079-1.28,0.3-1.799,0.659s-0.932,0.915-1.239,1.659
		C134.212,132.908,134.052,133.973,134.052,135.332z"/>
	<path style="fill:#EA3457;" d="M188.532,121.252c1.065,0,2.14,0.041,3.219,0.119c1.079,0.078,2.062,0.307,2.939,0.679
		c0.877,0.372,1.594,0.939,2.14,1.7c0.546,0.761,0.819,1.819,0.819,3.181c0,1.335-0.273,2.379-0.819,3.14
		c-0.546,0.761-1.26,1.328-2.14,1.7c-0.881,0.372-1.86,0.608-2.939,0.7c-1.079,0.092-2.154,0.14-3.219,0.14h-4.079v35.519
		c0,1.147-0.034,2.266-0.099,3.359c-0.065,1.092-0.287,2.065-0.659,2.918s-0.973,1.539-1.799,2.062
		c-0.826,0.522-2,0.782-3.519,0.782c-1.519,0-2.693-0.259-3.519-0.782c-0.826-0.522-1.427-1.208-1.799-2.062
		s-0.594-1.826-0.659-2.918c-0.065-1.092-0.099-2.212-0.099-3.359v-35.516h-4.079c-1.065,0-2.14-0.048-3.219-0.14
		c-1.079-0.092-2.062-0.328-2.939-0.7s-1.594-0.939-2.14-1.7s-0.819-1.806-0.819-3.14c0-1.359,0.273-2.42,0.819-3.181
		c0.546-0.761,1.26-1.328,2.14-1.7c0.881-0.372,1.86-0.601,2.939-0.679c1.079-0.079,2.154-0.119,3.219-0.119h20.309V121.252z"/>
	<path style="fill:#EA3457;" d="M238.855,157.013c0.055,1.812,0.119,3.666,0.201,5.56c0.082,1.894,0.119,3.721,0.119,5.478v1.201
		c0,1.014-0.034,1.993-0.099,2.939c-0.065,0.945-0.273,1.799-0.621,2.56s-0.894,1.365-1.638,1.819
		c-0.744,0.454-1.799,0.679-3.161,0.679c-1.386,0-2.454-0.225-3.202-0.679c-0.748-0.454-1.3-1.055-1.659-1.799
		c-0.358-0.744-0.573-1.601-0.642-2.56s-0.099-1.946-0.099-2.959v-5.601h-16.002v5.601c0,1.014-0.034,2-0.099,2.959
		c-0.065,0.959-0.28,1.812-0.642,2.56c-0.362,0.748-0.915,1.348-1.659,1.799s-1.812,0.679-3.202,0.679
		c-1.389,0-2.454-0.225-3.202-0.679c-0.748-0.454-1.294-1.062-1.638-1.819c-0.345-0.758-0.546-1.615-0.601-2.56
		s-0.079-1.925-0.079-2.939v-1.201c0-0.826,0.007-1.707,0.02-2.639s0.034-1.881,0.061-2.84c0.027-0.959,0.055-1.915,0.079-2.86
		s0.055-1.847,0.082-2.7c1.335-4.639,2.734-9.339,4.198-14.1s2.867-9.472,4.198-14.141c0.266-0.986,0.587-1.939,0.959-2.86
		s0.867-1.72,1.481-2.4c0.614-0.679,1.399-1.225,2.359-1.638s2.188-0.621,3.68-0.621h4c1.468,0,2.686,0.208,3.659,0.621
		c0.973,0.413,1.768,0.959,2.379,1.638c0.611,0.679,1.099,1.481,1.461,2.4s0.686,1.874,0.98,2.86L238.855,157.013z M213.733,153.095
		h12.721l-5.919-21.439h-0.881L213.733,153.095z"/>
	<path style="fill:#EA3457;" d="M247.815,130.372c0-1.147,0.034-2.266,0.099-3.359c0.065-1.092,0.287-2.065,0.659-2.918
		s0.966-1.539,1.778-2.062c0.812-0.522,1.966-0.782,3.461-0.782h13.199c3.28,0.16,6.212,0.853,8.8,2.079
		c1.092,0.532,2.167,1.195,3.219,1.98s1.993,1.761,2.819,2.918s1.495,2.526,2,4.099c0.505,1.574,0.761,3.4,0.761,5.478
		c0,0.427-0.041,0.993-0.119,1.7c-0.079,0.707-0.253,1.481-0.519,2.321c-0.266,0.84-0.628,1.713-1.079,2.621
		c-0.451,0.908-1.055,1.775-1.799,2.601c-0.744,0.826-1.659,1.587-2.741,2.28s-2.352,1.253-3.82,1.679
		c0.932,0.372,1.881,0.86,2.84,1.461c0.959,0.601,1.826,1.365,2.601,2.301s1.406,2.055,1.901,3.359
		c0.495,1.304,0.741,2.826,0.741,4.56v5.68c0,0.321,0.078,0.587,0.239,0.799c0.16,0.212,0.321,0.399,0.481,0.56
		c0.642,0.642,1.014,1.195,1.12,1.659s0.16,0.847,0.16,1.14c0,0.932-0.188,1.72-0.56,2.359c-0.372,0.638-0.86,1.161-1.461,1.56
		c-0.601,0.399-1.28,0.686-2.041,0.86s-1.539,0.259-2.342,0.259c-0.881,0-1.775-0.14-2.679-0.42
		c-0.905-0.28-1.734-0.686-2.481-1.219c-0.747-0.532-1.352-1.202-1.819-2c-0.468-0.799-0.7-1.72-0.7-2.761v-8.479
		c0-1.174-0.079-2.253-0.239-3.239c-0.16-0.986-0.468-1.84-0.922-2.56c-0.454-0.72-1.079-1.28-1.881-1.679
		c-0.802-0.399-1.84-0.601-3.12-0.601h-4.478v13.36c0,1.174-0.034,2.321-0.099,3.441c-0.065,1.12-0.287,2.113-0.659,2.98
		c-0.372,0.867-0.973,1.56-1.799,2.079c-0.826,0.519-2,0.782-3.519,0.782c-1.495,0-2.645-0.259-3.461-0.782
		c-0.816-0.522-1.406-1.212-1.778-2.079c-0.372-0.867-0.594-1.86-0.659-2.98c-0.065-1.12-0.099-2.266-0.099-3.441v-37.594H247.815z
		 M265.332,145.654c1.335-0.055,2.533-0.372,3.601-0.959c0.454-0.239,0.894-0.546,1.321-0.922s0.812-0.84,1.161-1.399
		c0.348-0.56,0.621-1.212,0.819-1.959c0.198-0.748,0.3-1.615,0.3-2.601c0-0.881-0.099-1.659-0.3-2.342
		c-0.201-0.683-0.461-1.273-0.782-1.778c-0.321-0.505-0.686-0.932-1.099-1.28c-0.413-0.348-0.833-0.628-1.26-0.84
		c-1.014-0.505-2.161-0.799-3.441-0.881h-5.762v14.961H265.332z"/>
	<path style="fill:#EA3457;" d="M317.652,121.252c1.065,0,2.14,0.041,3.219,0.119c1.079,0.078,2.062,0.307,2.939,0.679
		c0.881,0.372,1.594,0.939,2.14,1.7c0.546,0.761,0.819,1.819,0.819,3.181c0,1.335-0.273,2.379-0.819,3.14
		c-0.546,0.761-1.26,1.328-2.14,1.7c-0.881,0.372-1.86,0.608-2.939,0.7c-1.079,0.092-2.154,0.14-3.219,0.14h-4.079v35.519
		c0,1.147-0.034,2.266-0.099,3.359c-0.065,1.092-0.287,2.065-0.659,2.918c-0.372,0.853-0.973,1.539-1.799,2.062
		c-0.826,0.519-2,0.782-3.519,0.782c-1.519,0-2.693-0.259-3.519-0.782c-0.826-0.522-1.427-1.208-1.799-2.062
		c-0.372-0.853-0.594-1.826-0.659-2.918c-0.065-1.092-0.099-2.212-0.099-3.359v-35.516h-4.079c-1.065,0-2.14-0.048-3.219-0.14
		c-1.079-0.092-2.062-0.328-2.939-0.7c-0.877-0.372-1.594-0.939-2.14-1.7c-0.546-0.761-0.819-1.806-0.819-3.14
		c0-1.359,0.273-2.42,0.819-3.181c0.546-0.761,1.26-1.328,2.14-1.7c0.881-0.372,1.86-0.601,2.939-0.679
		c1.079-0.079,2.154-0.119,3.219-0.119h20.309V121.252z"/>
</g>
<path style="fill:#602F75;" d="M348.16,341.333H81.92c-3.768,0-6.827-3.058-6.827-6.827s3.058-6.827,6.827-6.827h266.24
	c3.768,0,6.827,3.058,6.827,6.827S351.928,341.333,348.16,341.333z"/>
<g>
</g>
<g>
</g>
<g>
</g>
<g>
</g>
<g>
</g>
<g>
</g>
<g>
</g>
<g>
</g>
<g>
</g>
<g>
</g>
<g>
</g>
<g>
</g>
<g>
</g>
<g>
</g>
<g>
</g>
</svg>
